# xmcd
#
# Track frame offsets:
#	150
#	15825
#	34025
#	56200
#	77512
#	100925
#	129387
#	155550
#	184900
#	205062
#	236700
#	251862
#	275137
#
# Disc length: 3852 seconds
#
# Revision: 0
# Processed by: cddbd v1.4b42PL1 Copyright (c) Steve Scherf et al.
# Submitted via: EasyCDDAExtractor 4.5.0.2
#
DISCID=b00f0a0d
DTITLE=Grateful Dead  - Smokin' Covers Vol II
DYEAR=1900
DGENRE=Blues
TTITLE0=Baba O'Reilly (The Who) - 1992-05-31
TTITLE1=Tomorrow Never Knows (The Beatles) - 1992-05-31
TTITLE2=Louie Louie (Kingsmen) - 1989-04-09
TTITLE3=Johnny B. Good (Chuck Berry) - 1993-08-27
TTITLE4=Mighty Quinn (Bob Dylan) - 1991-05-11
TTITLE5=Hard to Handle (Otis Redding) - 1970-02-14
TTITLE6=Bobby McGree (Kris Kristofferson) - 1971-05-30
TTITLE7=Smokestack Lightning (The Yardbirds) - 1984-11-02
TTITLE8=Spoonful (Willie Dixon) - 1984-11-02
TTITLE9=Superstitious (Jeff Beck) - 1985-06-28
TTITLE10=Promised Land (Chuck Berry) - 1974-10-17
TTITLE11=Around and Around (Chuck Berry) - 1974-10-18
TTITLE12=Golden Road (live)
EXTD=
EXTT0=
EXTT1=
EXTT2=
EXTT3=
EXTT4=
EXTT5=
EXTT6=
EXTT7=
EXTT8=
EXTT9=
EXTT10=
EXTT11=
EXTT12=
PLAYORDER=
